<svg xmlns="http://www.w3.org/2000/svg" xmlns:xlink="http://www.w3.org/1999/xlink" width="600" zoomAndPan="magnify" viewBox="0 0 450 449.999984" height="600" preserveAspectRatio="xMidYMid meet" version="1.0"><defs><g/><clipPath id="861033df66"><path d="M 22.09375 22.09375 L 427.90625 22.09375 L 427.90625 427.90625 L 22.09375 427.90625 Z M 22.09375 22.09375 " clip-rule="nonzero"/></clipPath><clipPath id="89df3aec97"><path d="M 225 22.09375 C 112.9375 22.09375 22.09375 112.9375 22.09375 225 C 22.09375 337.0625 112.9375 427.90625 225 427.90625 C 337.0625 427.90625 427.90625 337.0625 427.90625 225 C 427.90625 112.9375 337.0625 22.09375 225 22.09375 Z M 225 22.09375 " clip-rule="nonzero"/></clipPath><clipPath id="08b9429e9f"><path d="M 53.117188 53.117188 L 396.882812 53.117188 L 396.882812 396.882812 L 53.117188 396.882812 Z M 53.117188 53.117188 " clip-rule="nonzero"/></clipPath><clipPath id="d715763f37"><path d="M 225 53.117188 C 130.074219 53.117188 53.117188 130.074219 53.117188 225 C 53.117188 319.925781 130.074219 396.882812 225 396.882812 C 319.925781 396.882812 396.882812 319.925781 396.882812 225 C 396.882812 130.074219 319.925781 53.117188 225 53.117188 Z M 225 53.117188 " clip-rule="nonzero"/></clipPath><clipPath id="8c556d3937"><path d="M 146.808594 133.839844 L 197.058594 133.839844 L 197.058594 184.089844 L 146.808594 184.089844 Z M 146.808594 133.839844 " clip-rule="nonzero"/></clipPath></defs><g clip-path="url(#861033df66)"><g clip-path="url(#89df3aec97)"><path fill="#0074ff" d="M 22.09375 22.09375 L 427.90625 22.09375 L 427.90625 427.90625 L 22.09375 427.90625 Z M 22.09375 22.09375 " fill-opacity="1" fill-rule="nonzero"/></g></g><g clip-path="url(#08b9429e9f)"><g clip-path="url(#d715763f37)"><path fill="#ffffff" d="M 53.117188 53.117188 L 396.882812 53.117188 L 396.882812 396.882812 L 53.117188 396.882812 Z M 53.117188 53.117188 " fill-opacity="1" fill-rule="nonzero"/></g></g><g fill="#000000" fill-opacity="1"><g transform="translate(132.891238, 347.395355)"><g><path d="M 79.9375 3.28125 C 60.570312 3.28125 44.488281 -0.382812 31.6875 -7.71875 C 18.882812 -15.0625 9.570312 -24.925781 3.75 -37.3125 L 29.1875 -68.21875 L 33.09375 -68.21875 C 37.257812 -58.226562 43.164062 -50.34375 50.8125 -44.5625 C 58.46875 -38.789062 67.34375 -35.90625 77.4375 -35.90625 C 88.78125 -35.90625 97.207031 -39.207031 102.71875 -45.8125 C 108.238281 -52.425781 111 -63.175781 111 -78.0625 L 111 -228.25 L 155.96875 -228.25 L 155.96875 -77.28125 C 155.96875 -49.695312 149.695312 -29.375 137.15625 -16.3125 C 124.613281 -3.25 105.539062 3.28125 79.9375 3.28125 Z M 79.9375 3.28125 "/></g></g></g><g clip-path="url(#8c556d3937)"><path fill="#000000" d="M 171.933594 133.839844 C 185.808594 133.839844 197.058594 145.089844 197.058594 158.964844 C 197.058594 172.839844 185.808594 184.089844 171.933594 184.089844 C 158.058594 184.089844 146.808594 172.839844 146.808594 158.964844 C 146.808594 145.089844 158.058594 133.839844 171.933594 133.839844 Z M 171.933594 133.839844 " fill-opacity="1" fill-rule="evenodd"/></g></svg>